<?xml version="1.0" encoding="utf-8"?>
<!-- Generator: Adobe Illustrator 22.1.0, SVG Export Plug-In . SVG Version: 6.00 Build 0)  -->
<svg version="1.1" id="Layer_1" xmlns="http://www.w3.org/2000/svg" xmlns:xlink="http://www.w3.org/1999/xlink" x="0px" y="0px"
	 viewBox="0 0 12.6 18" style="enable-background:new 0 0 12.6 18;" xml:space="preserve">
<style type="text/css">
	.st0{fill:#FFFFFF;}
</style>
<path class="st0" d="M1.8,1.8C3.1,0.6,4.5,0,6.3,0C8,0,9.5,0.6,10.8,1.8s1.8,2.7,1.8,4.5c0,0.9-0.2,1.9-0.7,3
	c-0.4,1.1-1,2.2-1.6,3.2c-0.6,1-1.2,1.9-1.8,2.8c-0.6,0.9-1.1,1.5-1.5,2L6.3,18c-0.2-0.2-0.4-0.5-0.7-0.8c-0.3-0.3-0.8-1-1.5-1.9
	c-0.7-1-1.4-1.9-1.9-2.8c-0.5-0.9-1-2-1.5-3.1C0.2,8.2,0,7.2,0,6.3C0,4.5,0.6,3.1,1.8,1.8z M4.7,7.9c0.4,0.4,1,0.7,1.6,0.7
	c0.6,0,1.1-0.2,1.6-0.7c0.4-0.4,0.7-1,0.7-1.6c0-0.6-0.2-1.1-0.7-1.6c-0.4-0.4-1-0.7-1.6-0.7c-0.6,0-1.1,0.2-1.6,0.7
	c-0.4,0.4-0.7,1-0.7,1.6C4.1,6.9,4.3,7.4,4.7,7.9z"/>
</svg>
