<svg xmlns="http://www.w3.org/2000/svg" viewBox="0 0 16.4 18"><defs><style>.a{fill:#faa900;}</style></defs><title>flix_icon_login-ylw</title><path class="a" d="M2.81,11.67A14.44,14.44,0,0,1,8.2,10.54a14.44,14.44,0,0,1,5.39,1.13c1.87.75,2.81,1.74,2.81,2.95V18H0V14.62C0,13.41.94,12.42,2.81,11.67Zm8.47-4.19A4.19,4.19,0,0,1,8.2,8.77,4.19,4.19,0,0,1,5.12,7.48,4.18,4.18,0,0,1,3.84,4.41a4.28,4.28,0,0,1,1.28-3.1A4.17,4.17,0,0,1,8.2,0a4.17,4.17,0,0,1,3.08,1.31,4.28,4.28,0,0,1,1.28,3.1A4.18,4.18,0,0,1,11.28,7.48Z"/></svg>